<svg width="64" height="20" viewBox="0 0 64 20" fill="none" xmlns="http://www.w3.org/2000/svg">
<path d="M61.9375 16.1943H43.8125C42.8115 16.1943 42 15.4 42 14.42V3.77429C42 2.79437 42.8115 2 43.8125 2H61.9375C62.9385 2 63.75 2.79437 63.75 3.77429V14.42C63.75 15.4 62.9385 16.1943 61.9375 16.1943ZM46.8333 6.28787V4.8093C46.8333 4.56433 46.6304 4.36572 46.3802 4.36572H44.8698C44.6196 4.36572 44.4167 4.56433 44.4167 4.8093V6.28787C44.4167 6.53284 44.6196 6.73145 44.8698 6.73145H46.3802C46.6304 6.73145 46.8333 6.53284 46.8333 6.28787ZM50.4583 6.28787V4.8093C50.4583 4.56433 50.2554 4.36572 50.0052 4.36572H48.4948C48.2446 4.36572 48.0417 4.56433 48.0417 4.8093V6.28787C48.0417 6.53284 48.2446 6.73145 48.4948 6.73145H50.0052C50.2554 6.73145 50.4583 6.53284 50.4583 6.28787ZM54.0833 6.28787V4.8093C54.0833 4.56433 53.8804 4.36572 53.6302 4.36572H52.1198C51.8696 4.36572 51.6667 4.56433 51.6667 4.8093V6.28787C51.6667 6.53284 51.8696 6.73145 52.1198 6.73145H53.6302C53.8804 6.73145 54.0833 6.53284 54.0833 6.28787ZM57.7083 6.28787V4.8093C57.7083 4.56433 57.5054 4.36572 57.2552 4.36572H55.7448C55.4946 4.36572 55.2917 4.56433 55.2917 4.8093V6.28787C55.2917 6.53284 55.4946 6.73145 55.7448 6.73145H57.2552C57.5054 6.73145 57.7083 6.53284 57.7083 6.28787ZM61.3333 6.28787V4.8093C61.3333 4.56433 61.1304 4.36572 60.8802 4.36572H59.3698C59.1196 4.36572 58.9167 4.56433 58.9167 4.8093V6.28787C58.9167 6.53284 59.1196 6.73145 59.3698 6.73145H60.8802C61.1304 6.73145 61.3333 6.53284 61.3333 6.28787ZM48.6458 9.83646V8.35788C48.6458 8.11292 48.4429 7.91431 48.1927 7.91431H46.6823C46.4321 7.91431 46.2292 8.11292 46.2292 8.35788V9.83646C46.2292 10.0814 46.4321 10.28 46.6823 10.28H48.1927C48.4429 10.28 48.6458 10.0814 48.6458 9.83646ZM52.2708 9.83646V8.35788C52.2708 8.11292 52.0679 7.91431 51.8177 7.91431H50.3073C50.0571 7.91431 49.8542 8.11292 49.8542 8.35788V9.83646C49.8542 10.0814 50.0571 10.28 50.3073 10.28H51.8177C52.0679 10.28 52.2708 10.0814 52.2708 9.83646ZM55.8958 9.83646V8.35788C55.8958 8.11292 55.6929 7.91431 55.4427 7.91431H53.9323C53.6821 7.91431 53.4792 8.11292 53.4792 8.35788V9.83646C53.4792 10.0814 53.6821 10.28 53.9323 10.28H55.4427C55.6929 10.28 55.8958 10.0814 55.8958 9.83646ZM59.5208 9.83646V8.35788C59.5208 8.11292 59.3179 7.91431 59.0677 7.91431H57.5573C57.3071 7.91431 57.1042 8.11292 57.1042 8.35788V9.83646C57.1042 10.0814 57.3071 10.28 57.5573 10.28H59.0677C59.3179 10.28 59.5208 10.0814 59.5208 9.83646ZM46.8333 13.385V11.9065C46.8333 11.6615 46.6304 11.4629 46.3802 11.4629H44.8698C44.6196 11.4629 44.4167 11.6615 44.4167 11.9065V13.385C44.4167 13.63 44.6196 13.8286 44.8698 13.8286H46.3802C46.6304 13.8286 46.8333 13.63 46.8333 13.385ZM57.7083 13.385V11.9065C57.7083 11.6615 57.5054 11.4629 57.2552 11.4629H48.4948C48.2446 11.4629 48.0417 11.6615 48.0417 11.9065V13.385C48.0417 13.63 48.2446 13.8286 48.4948 13.8286H57.2552C57.5054 13.8286 57.7083 13.63 57.7083 13.385ZM61.3333 13.385V11.9065C61.3333 11.6615 61.1304 11.4629 60.8802 11.4629H59.3698C59.1196 11.4629 58.9167 11.6615 58.9167 11.9065V13.385C58.9167 13.63 59.1196 13.8286 59.3698 13.8286H60.8802C61.1304 13.8286 61.3333 13.63 61.3333 13.385Z" fill="#414141"/>
<path d="M4.73188 15.24C3.84521 15.24 3.18521 15.0067 2.75188 14.54C2.32521 14.0733 2.11188 13.3667 2.11188 12.42V7.42H0.731875V4.78H2.11188V1.98L5.09188 0.559999V4.78H7.27188V7.42H5.09188V12.06C5.09188 12.26 5.14188 12.4133 5.24188 12.52C5.34854 12.6267 5.50854 12.68 5.72188 12.68C6.23521 12.68 6.79854 12.5467 7.41188 12.28L7.07188 14.78C6.75188 14.9267 6.39854 15.04 6.01188 15.12C5.63188 15.2 5.20521 15.24 4.73188 15.24ZM8.68719 18.88L10.2272 14.88L6.36719 4.78H9.48719L11.5072 10.1C11.5605 10.22 11.6172 10.37 11.6772 10.55C11.7372 10.73 11.7872 10.9 11.8272 11.06C11.8672 10.9 11.9172 10.7333 11.9772 10.56C12.0439 10.38 12.1005 10.2267 12.1472 10.1L14.1472 4.78H17.2472L11.8072 18.88H8.68719ZM17.2031 19.06V4.78H20.2031V5.46C20.6498 4.84667 21.3165 4.54 22.2031 4.54C23.0831 4.54 23.8398 4.75667 24.4731 5.19C25.1065 5.61667 25.5931 6.23 25.9331 7.03C26.2731 7.83 26.4431 8.78667 26.4431 9.9C26.4431 10.96 26.2631 11.89 25.9031 12.69C25.5431 13.49 25.0398 14.1167 24.3931 14.57C23.7531 15.0167 23.0098 15.24 22.1631 15.24C21.7365 15.24 21.3565 15.1633 21.0231 15.01C20.6965 14.8633 20.4231 14.6467 20.2031 14.36V17.72L17.2031 19.06ZM21.6831 12.34C22.2431 12.34 22.6765 12.1267 22.9831 11.7C23.2898 11.2667 23.4431 10.6667 23.4431 9.9C23.4431 9.1 23.2931 8.49 22.9931 8.07C22.6931 7.65 22.2565 7.44 21.6831 7.44C21.3565 7.44 21.0765 7.48333 20.8431 7.57C20.6165 7.65667 20.4031 7.8 20.2031 8V11.74C20.2631 11.9067 20.4331 12.05 20.7131 12.17C20.9998 12.2833 21.3231 12.34 21.6831 12.34ZM31.3019 15.24C30.2885 15.24 29.4152 15.0267 28.6819 14.6C27.9552 14.1733 27.3952 13.56 27.0019 12.76C26.6152 11.96 26.4219 11 26.4219 9.88C26.4219 8.79333 26.6185 7.85 27.0119 7.05C27.4119 6.25 27.9752 5.63333 28.7019 5.2C29.4352 4.76 30.3019 4.54 31.3019 4.54C32.1685 4.54 32.9485 4.71667 33.6419 5.07C34.3419 5.41667 34.8952 5.95 35.3019 6.67C35.7152 7.38333 35.9219 8.28667 35.9219 9.38C35.9219 9.56667 35.9185 9.8 35.9119 10.08C35.9052 10.3533 35.8819 10.6267 35.8419 10.9H29.3419C29.3419 11.2667 29.4219 11.5867 29.5819 11.86C29.7419 12.1267 29.9685 12.3333 30.2619 12.48C30.5552 12.6267 30.9019 12.7 31.3019 12.7C31.8219 12.7 32.2552 12.6167 32.6019 12.45C32.9552 12.2833 33.2952 12.0067 33.6219 11.62L35.3419 13.34C34.8619 13.92 34.2919 14.3833 33.6319 14.73C32.9719 15.07 32.1952 15.24 31.3019 15.24ZM29.3819 8.66H33.0619C33.0085 8.30667 32.9052 8.01333 32.7519 7.78C32.5985 7.54667 32.3952 7.37333 32.1419 7.26C31.8885 7.14 31.5819 7.08 31.2219 7.08C30.7352 7.08 30.3252 7.22 29.9919 7.5C29.6585 7.78 29.4552 8.16667 29.3819 8.66Z" fill="#DBE3E3"/>
</svg>
